<mxfile host="app.diagrams.net" modified="2024-06-11T07:38:09.193Z" agent="Mozilla/5.0 (Windows NT 10.0; Win64; x64) AppleWebKit/537.36 (KHTML, like Gecko) Chrome/126.0.0.0 Safari/537.36" version="24.5.2" etag="EsNJ92hDxSeh9wUc_5JJ" type="github">
  <diagram name="第 1 页" id="27wKqZMkXGN5Dxm4FqDE">
    <mxGraphModel>
      <root>
        <mxCell id="0" />
        <mxCell id="1" parent="0" />
      </root>
    </mxGraphModel>
  </diagram>
</mxfile>
